<?xml version="1.0" encoding="UTF-8"?>
<svg id="Capa_1" data-name="Capa 1" xmlns="http://www.w3.org/2000/svg" viewBox="0 0 179 92">
  <defs>
    <style>
      .cls-1 {
        fill: #008dd2;
      }

      .cls-2 {
        fill: #fff;
      }

      .cls-3 {
        fill: #fdd200;
      }

      .cls-4 {
        fill: #d8000f;
      }
    </style>
  </defs>
  <rect class="cls-1" x="-.94" y="-1" width="181.87" height="93.9"/>
  <path class="cls-2" d="M120.52,62.37c-2.08,0-4.17-.2-6.16-.66-2.3-.53-4.55-1.55-6.22-3.22-2.73-2.73-3.52-6.71-3.52-10.44v-14.37h-5.65v-12.61l5.85-.03V10.11h14.45v10.93h9.45l-.19,12.04s-9.08,0-9.08,0c0,1.74,0,3.48,.01,5.22,0,2.27-.01,4.6-.01,6.82,0,2.15,1.71,3.59,3.68,4.05,.97,.22,2.02,.24,2.99,0,.48-.12,2.77-1.37,2.77-.53,0,2.04,0,5.04,0,5.37v7.41c-.92,.41-1.49,.29-3.14,.54-1.7,.26-3.47,.41-5.23,.41Z"/>
  <path class="cls-2" d="M156.17,36.61c0-1.96-1.27-3.36-3.05-3.99-1.86-.66-3.88-.34-5.78-.08-.75,.1-6.4,1.1-7.51,2.02,0,0-4.07-10.35-4.07-10.37-.58-1.61,13.11-3.06,14.47-3.12,3.46-.17,7.25-.2,10.59,.79,2.95,.87,5.72,2.46,7.61,4.92,1.41,1.83,2.39,3.95,2.96,6.36,.57,2.42,.85,4.98,.85,7.7v20.5h-15.47v-3.11h-.15c-.99,1.48-2.39,2.54-4.22,3.18-1.83,.64-3.6,.96-5.33,.96-1.53,0-3.1-.22-4.7-.67-1.6-.44-3.06-1.16-4.37-2.15-1.31-.99-2.38-2.27-3.22-3.85-.84-1.58-1.26-3.53-1.26-5.85,0-2.71,.7-4.92,2.11-6.62s3.19-3.03,5.37-4c2.17-.96,4.6-1.62,7.29-1.96,2.69-.34,5.32-.52,7.88-.52v-.15Zm.15,8.59c-2.52,0-4.54,.27-6.07,.81-1.53,.54-2.29,1.55-2.29,3.03,0,.54,.12,1,.37,1.37,.25,.37,.57,.68,.96,.93,.39,.25,.83,.43,1.3,.55,.47,.12,.9,.19,1.3,.19,1.63,0,2.93-.52,3.92-1.55,.99-1.04,1.48-2.37,1.48-4v-1.33h-.96Z"/>
  <path class="cls-2" d="M19.25,44.93s-9.98,8.13-10,8.15c-.7,.57,3.63,4.37,4.12,4.75,4.78,3.72,11.46,5.11,17.36,3.83,5.65-1.22,11.62-5.22,13.49-10.92,.97-2.95,1.04-6.18,1.12-9.26,.18-6.91,.03-13.85,.03-20.76v-7.09s-15.82,0-16.15,0c-.23,.35,0,1.64,0,2.03,0,1.55,0,3.09,0,4.64,0,3.34,.04,6.69,0,10.02-.05,3.82,0,7.63,.13,11.45,.07,1.96,.08,4.16-1.3,5.72-2.77,3.16-6.85-.21-8.78-2.57Z"/>
  <g>
    <path class="cls-2" d="M69.53,53.36l-13.15-18.52,6.85-6.48,7.41,10,13.25-14.84h0s0,0,0,0l1.42-1.59c-3.9-3.1-8.84-4.95-14.21-4.95-12.63,0-22.87,10.24-22.87,22.87s10.24,22.87,22.87,22.87,22.87-10.24,22.87-22.87c0-3.87-.96-7.51-2.66-10.71l-21.79,24.23Z"/>
    <path class="cls-4" d="M88.49,24.98l5.43-6.35-2.6-3.42-6,6.7c1.15,.92,2.22,1.94,3.17,3.06Z"/>
    <path class="cls-3" d="M88.51,24.99c1.04,1.22,1.96,2.56,2.73,3.98l9.5-10.16-3.33-4.26-3.48,4.07,.06,.07-5.47,6.29Z"/>
  </g>
  <g>
    <path class="cls-2" d="M9.25,83.94v-14.69h3.57v11.6h5.69v3.09H9.25Z"/>
    <path class="cls-2" d="M37.31,83.94v-14.69h3.57v11.6h5.69v3.09h-9.26Z"/>
    <path class="cls-2" d="M80.68,76.53c0,1.16-.2,2.22-.6,3.19-.4,.96-.96,1.78-1.67,2.47-.71,.68-1.56,1.21-2.54,1.59-.98,.37-2.05,.56-3.2,.56s-2.21-.19-3.19-.56-1.82-.9-2.53-1.59c-.71-.68-1.27-1.51-1.67-2.47-.4-.96-.6-2.02-.6-3.19s.2-2.24,.6-3.19c.4-.95,.96-1.75,1.67-2.42,.71-.66,1.56-1.18,2.53-1.54,.98-.36,2.04-.54,3.19-.54s2.21,.18,3.2,.54c.98,.36,1.83,.87,2.54,1.54,.71,.66,1.27,1.47,1.67,2.42,.4,.95,.6,2.01,.6,3.19Zm-3.8,0c0-.64-.1-1.23-.31-1.78-.21-.55-.49-1.03-.86-1.42-.37-.39-.81-.71-1.33-.93-.52-.23-1.09-.34-1.71-.34s-1.19,.11-1.7,.34c-.51,.23-.95,.54-1.33,.93-.37,.39-.66,.87-.86,1.42-.2,.55-.3,1.15-.3,1.78s.1,1.28,.31,1.84,.49,1.04,.86,1.44c.37,.4,.81,.72,1.32,.94,.51,.23,1.08,.34,1.7,.34s1.19-.11,1.7-.34c.51-.23,.95-.54,1.33-.94,.37-.4,.66-.88,.87-1.44s.31-1.17,.31-1.84Z"/>
    <path class="cls-2" d="M108.52,83.94l-3.19-5.83h-1.21v5.83h-3.47v-14.69h5.6c.71,0,1.39,.07,2.06,.22,.67,.15,1.27,.39,1.81,.74,.53,.35,.96,.8,1.28,1.37,.32,.57,.48,1.27,.48,2.12,0,1-.27,1.83-.81,2.51-.54,.68-1.29,1.16-2.24,1.45l3.84,6.29h-4.15Zm-.15-10.19c0-.35-.07-.63-.22-.84-.15-.21-.33-.38-.56-.5-.23-.12-.49-.2-.77-.24-.28-.04-.56-.06-.82-.06h-1.9v3.42h1.69c.29,0,.59-.02,.9-.07,.31-.05,.58-.13,.83-.26,.25-.12,.46-.3,.62-.54,.16-.24,.24-.54,.24-.91Z"/>
    <path class="cls-2" d="M132.06,83.94v-14.69h9.88v2.99h-6.45v2.78h6.1v2.84h-6.1v3.05h6.83v3.03h-10.25Z"/>
    <path class="cls-2" d="M168.08,72.28v11.66h-3.55v-11.66h-4.15v-3.03h11.85v3.03h-4.15Z"/>
  </g>
</svg>